<svg xmlns="http://www.w3.org/2000/svg" viewBox="0 0 100 100">
  <defs>
    <linearGradient id="g" x1="0%" y1="0%" x2="100%" y2="100%">
      <stop offset="0%" stop-color="#38bdf8"/>
      <stop offset="100%" stop-color="#818cf8"/>
    </linearGradient>
  </defs>
  <rect width="100" height="100" rx="22" fill="url(#g)"/>
  <path d="M28 34 h44 a4 4 0 0 1 4 4 v36 a4 4 0 0 1 -4 4 h-44 a4 4 0 0 1 -4 -4 v-36 a4 4 0 0 1 4 -4 z" fill="none" stroke="white" stroke-width="5" stroke-linejoin="round"/>
  <circle cx="38" cy="44" r="5" fill="white"/>
  <path d="M28 66 L42 52 L54 64 L66 48 L76 58 V70 A4 4 0 0 1 72 74 H32 A4 4 0 0 1 28 70 Z" fill="white" opacity="0.9"/>
  <path d="M70 28 L82 28 L82 40" fill="none" stroke="white" stroke-width="5" stroke-linecap="round" stroke-linejoin="round"/>
  <path d="M82 28 L66 44" fill="none" stroke="white" stroke-width="5" stroke-linecap="round"/>
</svg>
